<svg width="72" height="62" viewBox="0 0 72 62" fill="none" xmlns="http://www.w3.org/2000/svg">
<path d="M58.6425 31V30.5H58.1425H47.0711C43.6798 30.5 40.9282 27.7484 40.9282 24.3572V6.64286C40.9282 3.25158 43.6798 0.5 47.0711 0.5H64.7854C68.1767 0.5 70.9282 3.25158 70.9282 6.64286V39.8573C70.9282 51.8151 61.2431 61.5002 49.2854 61.5002H48.1783C46.6137 61.5002 45.3568 60.2431 45.3568 58.6787V52.0358C45.3568 50.4712 46.6138 49.2143 48.1783 49.2143H49.2854C54.4468 49.2143 58.6425 45.0186 58.6425 39.8572V31Z" stroke="white"/>
<path d="M18.7856 31V30.5H18.2856H7.21415C3.82287 30.5 1.07129 27.7484 1.07129 24.3572V6.64286C1.07129 3.25158 3.82287 0.5 7.21415 0.5H24.9284C28.3197 0.5 31.0713 3.25158 31.0713 6.64286V39.8573C31.0713 51.8151 21.3862 61.5002 9.42844 61.5002H8.32136C6.75679 61.5002 5.49986 60.2431 5.49986 58.6787V52.0358C5.49986 50.4712 6.75691 49.2143 8.32136 49.2143H9.42844C14.5899 49.2143 18.7856 45.0186 18.7856 39.8572V31Z" stroke="white"/>
</svg>
